<?xml version="1.0" encoding="utf-8"?>
<!-- Generator: Adobe Illustrator 26.0.1, SVG Export Plug-In . SVG Version: 6.00 Build 0)  -->
<svg version="1.1" id="Layer_1" xmlns="http://www.w3.org/2000/svg" xmlns:xlink="http://www.w3.org/1999/xlink" x="0px" y="0px"
	 viewBox="0 0 15 15" style="enable-background:new 0 0 15 15;" xml:space="preserve">
<style type="text/css">
	.st0{fill:#D8B000;}
</style>
<path class="st0" d="M-30.3,56.4c0.2,0,0.5,0,0.7,0h74.4C19.8,56.4-5.2,56.4-30.3,56.4z"/>
<g>
	<path class="st0" d="M0,1.8L0,1.8v11.3l0,0V1.8z"/>
	<path class="st0" d="M13.2,0H1.8H1.7C5.5,0,9.4,0,13.2,0z"/>
	<path class="st0" d="M15,13.2C15,13.2,15,13.2,15,13.2V1.8c0,0,0,0,0,0C15,5.6,15,9.4,15,13.2z"/>
	<path class="st0" d="M15,13.2c0-3.8,0-7.6,0-11.4c0-1-0.8-1.8-1.8-1.8C9.4,0,5.5,0,1.7,0C0.8,0.1,0,0.9,0,1.8v11.4
		c0,1,0.7,1.8,1.7,1.8c3.8,0,7.7,0,11.5,0C14.2,15,15,14.2,15,13.2z M6.1,8.2C5.7,8.3,5.3,8.4,4.9,8.3c-0.1,0-0.2,0-0.2,0.2
		c0,0.7,0,1.4,0,2.1c0,0.1,0,0.2-0.2,0.2c-0.3,0-0.6,0-0.8,0c-0.1,0-0.2,0-0.2-0.2c0-1,0-2,0-3s0-2,0-3c0-0.2,0-0.2,0.2-0.2
		c0.8-0.1,1.7-0.2,2.5,0C7.1,4.5,7.7,5,7.8,5.8C8,7,7.5,8,6.1,8.2z M10.8,10.5c-0.5,0.3-1,0.3-1.6,0.3c-0.3,0-0.6-0.1-0.9-0.2
		c-0.1,0-0.1-0.1-0.1-0.2c0.1-0.2,0.1-0.5,0.2-0.7C8.9,9.9,9.3,10,9.8,9.9c0.4-0.1,0.6-0.3,0.5-0.6C10.2,9.2,10.1,9,10,9
		C9.8,8.9,9.6,8.8,9.4,8.7C9.2,8.7,9,8.6,8.8,8.4c-0.9-0.6-0.6-1.7,0-2.1C9.1,6.1,9.5,6,9.8,6c0.4,0,0.9,0,1.3,0.2
		c0.1,0,0.1,0.1,0.1,0.2c-0.1,0.2-0.1,0.4-0.2,0.6C11,7,11,7.1,10.9,7c-0.3-0.2-0.7-0.2-1.1-0.2C9.6,6.9,9.4,7,9.4,7.2
		c0,0.2,0,0.4,0.3,0.5c0.2,0.1,0.4,0.2,0.6,0.3c0.2,0.1,0.4,0.2,0.6,0.3c0.6,0.4,0.7,1.2,0.3,1.8C11.1,10.3,10.9,10.4,10.8,10.5
		L10.8,10.5z"/>
	<path class="st0" d="M5.9,5.2c-0.4-0.1-0.7-0.1-1.1,0c-0.1,0-0.1,0.1-0.1,0.1c0,0.3,0,0.6,0,1c0,0.3,0,0.6,0,1c0,0.1,0,0.1,0.1,0.2
		c0.4,0.1,0.9,0.1,1.3-0.1c0.5-0.2,0.7-0.6,0.6-1.2C6.6,5.6,6.3,5.3,5.9,5.2z"/>
</g>
</svg>
