<svg id="Layer_1" data-name="Layer 1" xmlns="http://www.w3.org/2000/svg" viewBox="0 0 100 100"><defs><style>.cls-1{fill:#d8b000;}</style></defs><path class="cls-1" d="M82.74,98.92H17.33a1.31,1.31,0,0,0-.82-.16A16.33,16.33,0,0,1,1.67,86.51c-.33-1.27-.31-2.58-.59-3.85V17.25a1.85,1.85,0,0,0,.16-.93,14,14,0,0,1,.82-4.2c2.46-6.88,8.45-11,16-11q32,0,64,0a17.4,17.4,0,0,1,4.07.39,16.18,16.18,0,0,1,12.78,16.2q.09,32.27,0,64.53A16.15,16.15,0,0,1,86.12,98.4C85,98.67,83.87,98.75,82.74,98.92ZM22.11,73.85c2.71,0,5.32,0,7.93,0A.94.94,0,0,0,31.15,73c1.11-3.79,2.3-7.55,3.4-11.34.25-.87.64-1.1,1.52-1.09,4.2,0,8.41,0,12.62,0a1.19,1.19,0,0,1,1.38,1c1.17,3.83,2.41,7.65,3.64,11.46.11.33.09.78.66.77h8.56c.13-.26,0-.43,0-.61q-7.37-22.7-14.73-45.39a.82.82,0,0,0-.94-.67c-3,0-6,.06-9,0a1.35,1.35,0,0,0-1.56,1.16q-6,18.78-12,37.54C23.81,68.49,23,71.12,22.11,73.85ZM77.49,57c0-5.29,0-10.58,0-15.86,0-.87-.25-1.07-1.07-1.05q-3.3.08-6.6,0c-.78,0-1,.24-.94,1,0,1.21,0,2.42,0,3.63,0,9.34,0,18.68,0,28,0,1,.26,1.17,1.17,1.14,2.16-.07,4.33-.06,6.5,0,.77,0,1-.24,1-1C77.48,67.61,77.49,62.32,77.49,57ZM73.2,35.25A4.49,4.49,0,0,0,78,30.74a4.77,4.77,0,0,0-9.54,0A4.47,4.47,0,0,0,73.2,35.25Z"/><path class="cls-1" d="M42.26,34.18c.71,2.56,1.35,5.14,2.12,7.69,1.15,3.8,2.37,7.58,3.6,11.36.24.73.23,1-.65,1-3.41,0-6.81,0-10.22,0-.4,0-.87.12-.63-.61C38.51,47.14,40.64,40.76,42.26,34.18Z"/></svg>