<svg id="Layer_1" data-name="Layer 1" xmlns="http://www.w3.org/2000/svg" viewBox="0 0 100 100"><defs><style>.cls-1{fill:#d8b000;}</style></defs><path class="cls-1" d="M82.85,99.21H17.06a1.59,1.59,0,0,0-.93-.16,14.12,14.12,0,0,1-4.23-.83C5,95.75.81,89.73.8,82.12Q.79,50,.8,17.79a17.13,17.13,0,0,1,.4-4.1A16.26,16.26,0,0,1,17.49.83q32.45-.09,64.9,0a16.23,16.23,0,0,1,16.3,12.83c.26,1.11.35,2.27.51,3.4v65.8a8.22,8.22,0,0,0-.15.84A16.41,16.41,0,0,1,86.62,98.64C85.38,99,84.09,98.92,82.85,99.21ZM65.91,43.89a11.83,11.83,0,0,0-4.19-3.17,14.36,14.36,0,0,0-18.24,6.67A21.75,21.75,0,0,0,42.27,65c2.11,6.24,6.86,9.84,12.93,10A12.18,12.18,0,0,0,65.54,70.5c.37-.45.69-1,1.17-1.62.12,1.68.26,3.14.32,4.61,0,.59.18.83.82.82q3-.06,6.06,0c.69,0,.87-.21.83-.88-.31-5.06-.29-10.12-.29-15.19,0-10.73,0-21.47,0-32.21,0-1-.3-1.22-1.24-1.19-2.11.06-4.23.06-6.34,0-.81,0-1,.22-1,1,0,5.67,0,11.34,0,17Zm-40.76,7c0,7.5,0,15,0,22.49,0,.74.18,1,1,1,2.24,0,4.48,0,6.72,0,.69,0,.95-.16.95-.9q0-22.59,0-45.18c0-.66-.19-.88-.86-.87-2.21,0-4.43.05-6.63,0-.86,0-1.14.19-1.13,1.1C25.17,35.91,25.15,43.38,25.15,50.84Z"/><path class="cls-1" d="M65.91,57c0,2.06.13,4-.53,5.85a7.21,7.21,0,0,1-6,5.17c-3.3.48-6.13-.55-7.79-3.53A14.19,14.19,0,0,1,52,49.46a7.38,7.38,0,0,1,7.94-3,7.63,7.63,0,0,1,5.8,6.31A36.89,36.89,0,0,1,65.91,57Z"/></svg>