<svg id="Layer_1" data-name="Layer 1" xmlns="http://www.w3.org/2000/svg" viewBox="0 0 100 100"><defs><style>.cls-1{fill:#d8b000;}</style></defs><path class="cls-1" d="M82.4,98.54H17.51a1.55,1.55,0,0,0-.92-.16,14.16,14.16,0,0,1-4.17-.82C5.59,95.12,1.48,89.19,1.48,81.68q0-31.73,0-63.45a17.22,17.22,0,0,1,.38-4.05A16.06,16.06,0,0,1,17.93,1.5q32-.08,64,0A16,16,0,0,1,98,14.16c.26,1.1.35,2.24.51,3.36V82.41a6,6,0,0,0-.15.83A16.18,16.18,0,0,1,86.12,98C84.89,98.28,83.63,98.25,82.4,98.54ZM22,50.42c0,7.27,0,14.54,0,21.81,0,.88.25,1.11,1.11,1.08q3.12-.09,6.26,0c.81,0,1.07-.16,1.06-1,0-5.18,0-10.36,0-15.55,0-.68.1-.9.88-.82a27.07,27.07,0,0,0,13-1.58A14.63,14.63,0,0,0,50.83,33C48.48,29.48,45,27.87,41,27.19c-6.12-1-12.22-.51-18.31.3-.74.09-.73.49-.73,1Q22,39.47,22,50.42Zm44.79-4.16a1.19,1.19,0,0,1-.27-1c-.07-1.55-.16-3.09-.19-4.64,0-.57-.11-.85-.78-.83-2,0-3.92,0-5.88,0-.59,0-.75.18-.71.77.27,4.11.27,8.22.28,12.33,0,6.45,0,12.9,0,19.35,0,.85.23,1.06,1.05,1,2.15-.06,4.3,0,6.45,0,.75,0,1-.19,1-.94q0-7.73,0-15.46a20.73,20.73,0,0,1,.18-2.84,7.93,7.93,0,0,1,3.49-5.92,8,8,0,0,1,5.84-1c.64.1.82-.07.81-.71q0-3.18,0-6.36c0-.67-.26-.87-.87-.92a9.27,9.27,0,0,0-8,3.16A14.22,14.22,0,0,0,66.76,46.26Z"/><path class="cls-1" d="M30.36,41.3c0-2.33,0-4.67,0-7,0-.58.14-.82.76-.9,3-.35,5.93-.58,8.8.52a7.28,7.28,0,0,1,4.7,7.73c-.36,5.06-4,7.25-8.19,7.74a22.39,22.39,0,0,1-5.11,0c-.71-.08-1-.32-1-1.11C30.4,45.92,30.36,43.61,30.36,41.3Z"/></svg>