<svg id="Layer_1" data-name="Layer 1" xmlns="http://www.w3.org/2000/svg" viewBox="0 0 100 100"><defs><style>.cls-1{fill:#d8b000;}</style></defs><path class="cls-1" d="M47.31,1.06h5.42a.51.51,0,0,0,.3.07,47.22,47.22,0,0,1,9.52,1.51A48.85,48.85,0,0,1,98.78,46.1c.06.69,0,1.38.13,2v3.52c-.14.73-.07,1.47-.14,2.2a46.74,46.74,0,0,1-2.66,12.44q-8.3,22.13-30.58,30A50,50,0,0,1,51.44,98.9a42.13,42.13,0,0,1-7.69-.43,47,47,0,0,1-19.39-6.91A49.16,49.16,0,0,1,1.17,52.4a36.76,36.76,0,0,1,.08-5.84,61.55,61.55,0,0,1,.84-6.2A49,49,0,0,1,46.17,1.18,4,4,0,0,0,47.31,1.06Zm-15,74.51a12.06,12.06,0,0,0,7.26-2.74A15.57,15.57,0,0,0,43,68.54,42,42,0,0,0,46.69,60a48,48,0,0,0,1.55-5.67A1.77,1.77,0,0,0,47,52.06l-.51-.16c-.83-.25-1.65-.51-2.49-.73A42.42,42.42,0,0,0,31.9,49.44a15.43,15.43,0,0,0-5.38,1,13.1,13.1,0,0,0-7.69,14.85C20.14,71.32,25.41,75.53,32.34,75.57Zm17-58.42a12.59,12.59,0,0,0-10.65,6.61,12.08,12.08,0,0,0-1.57,8.67A17.85,17.85,0,0,0,39.9,38.7a50.28,50.28,0,0,0,8.76,10,3.82,3.82,0,0,0,.83.54,1.27,1.27,0,0,0,1.14,0,2.66,2.66,0,0,0,.78-.54,75.79,75.79,0,0,0,6.15-6.65,31.45,31.45,0,0,0,4.55-7.21,11.74,11.74,0,0,0,.8-7C61.72,21.71,56.33,17.17,49.38,17.15ZM67.23,49.49c-.42,0-.84,0-1.26,0a48.7,48.7,0,0,0-10.36,1.82c-.83.23-1.67.47-2.49.74a1.56,1.56,0,0,0-1.23,1.87,3.48,3.48,0,0,0,.11.72,65.82,65.82,0,0,0,2.43,8,32.25,32.25,0,0,0,4.06,7.84,10.82,10.82,0,0,0,3.72,3.4A13,13,0,0,0,81.43,60.64a12.62,12.62,0,0,0-8.15-10.3A15.67,15.67,0,0,0,67.23,49.49Z"/></svg>