<svg id="Layer_1" data-name="Layer 1" xmlns="http://www.w3.org/2000/svg" viewBox="0 0 100 100"><defs><style>.cls-1{fill:#d8b000;}</style></defs><path class="cls-1" d="M1.29,18V82.2c0,8.37,6.78,16.26,15.16,16.26h67.1c8.38,0,15.16-7.89,15.16-16.26V18c0-8.38-6.78-16.42-15.16-16.42H16.45C8.07,1.54,1.29,9.58,1.29,18Zm61.64,38c.67,2.71,3.07,4.51,6.42,4.76a18.09,18.09,0,0,0,8.09-1c1-.39,1,.08.83,1.7a12.14,12.14,0,0,0,.07,3.07c.12.88-.09,1.39-.82,1.66a20.53,20.53,0,0,1-15.59,0,11.21,11.21,0,0,1-6-6.37,17.18,17.18,0,0,1,1.51-16.17,12.68,12.68,0,0,1,14.85-5.24c6,2.15,8.38,6.67,8.28,12.15-.1,5,.49,4-4.13,4.33-1.72.11-3.46,0-5.19,0v0c-2.48,0-5,.05-7.44,0C62.78,54.77,62.75,55.18,62.93,55.92Zm-17,11c-1,.11-1.35-.19-1.6-.94-.79-2.39-1.65-4.75-2.42-7.14-.43-1.32-1.2-.9-4.27-.57a29.31,29.31,0,0,1-7.6-.25c-1.31-.2-1.69,0-1.95.81-.71,2.33-1.52,4.64-2.23,7A1.6,1.6,0,0,1,24.25,67c-1.69-.06-3.38,0-5.08,0a1,1,0,0,1-1-1.41l8.25-23.82c.89-2.59,1.77-5.18,2.69-7.76a10.92,10.92,0,0,0,.75-3.5c0-.94.42-1.14,1.24-1.11,1.28.05,2.56,0,3.83,0s2.42.05,3.63,0a1.61,1.61,0,0,1,1.6,1.09q5.69,16.14,11.42,32.25c.39,1.09.74,2.2,1.18,3.28.5,1.25-.46,1-2.5.84A21.59,21.59,0,0,0,45.93,67Z"/><path class="cls-1" d="M34.61,36.09c-.1.07-.15.08-.16.11q-2.14,6.94-4.28,13.89c-.18.58,0,.76.58.76,2.55,0,5.09,0,7.64,0,.68,0,.74-.22.55-.82C37.48,45.4,36.06,40.77,34.61,36.09Z"/><path class="cls-1" d="M68.14,44.08a5.48,5.48,0,0,0-5,4.44c-.11.66.2.68.68.67h4.4c1.38,0,2.77,0,4.16,0s1.43-.19,1.07-1.51A4.79,4.79,0,0,0,68.14,44.08Z"/></svg>