<svg id="Layer_1" data-name="Layer 1" xmlns="http://www.w3.org/2000/svg" viewBox="0 0 100 100"><defs><style>.cls-1{fill:#d8b000;}</style></defs><path class="cls-1" d="M40.17,27.05H58.65c.28,0,.69.15.81-.17s-.32-.41-.52-.57Q53.62,22,48.25,17.73a3.6,3.6,0,0,1,.08-6,7.07,7.07,0,0,1,8.47.1q7.39,5.73,14.83,11.41C76.51,27,81.38,30.73,86.3,34.46A32,32,0,0,1,95,44.28a28.14,28.14,0,0,1,3.71,12.34,28.66,28.66,0,0,1-6.91,20.71A33.48,33.48,0,0,1,71.31,89,35.87,35.87,0,0,1,45,84,30.88,30.88,0,0,1,33.12,70.25,21.23,21.23,0,0,1,31,59.55c0-.14.12-.34-.08-.43s-.39.11-.54.23c-1.54,1.25-3.07,2.52-4.61,3.78L17,70.3c-1.4,1.14-2.79,2.29-4.2,3.43a8.28,8.28,0,0,1-7.59,1.93C2,74.81.44,71.53,1.62,68.13a10.4,10.4,0,0,1,4.09-4.91C9.16,60.7,12.58,58.14,16,55.6L30.56,44.87c2.5-1.85,5-3.69,7.47-5.55.16-.11.45-.22.37-.44s-.4-.14-.61-.14c-5.9,0-11.81,0-17.72,0a5.57,5.57,0,0,1-5.49-6.36,6.3,6.3,0,0,1,5.08-5A12.42,12.42,0,0,1,22.58,27c5,0,9.94,0,14.91,0h2.68ZM66.38,37.17c-7.39,0-13,2.23-17.16,6.54a16.81,16.81,0,0,0-4.89,13.56,17.16,17.16,0,0,0,6.41,11.94,21.69,21.69,0,0,0,16.93,5,20.85,20.85,0,0,0,13.74-6.94,17.07,17.07,0,0,0,.38-22.52A20.75,20.75,0,0,0,66.38,37.17Z"/><path class="cls-1" d="M77.07,54.36A10.58,10.58,0,0,1,72,63.64a12.83,12.83,0,0,1-16.27-2.07,10.27,10.27,0,0,1,.61-14.44c5.38-5.34,15-4.34,19.14,2A10,10,0,0,1,77.07,54.36Z"/></svg>