<svg id="Layer_1" data-name="Layer 1" xmlns="http://www.w3.org/2000/svg" viewBox="0 0 100 100"><defs><style>.cls-1{fill:#d8b000;}</style></defs><path class="cls-1" d="M32.23,66.34a16.72,16.72,0,0,1-11.18-6.07,16.27,16.27,0,0,1,.52-21.13,16.62,16.62,0,0,1,10.67-5.47l-1-.16A16.29,16.29,0,0,1,29.93,1.56a16.41,16.41,0,0,1,3.82-.44H66.23a16.29,16.29,0,0,1,3.26,32.26c-.59.12-1.17.2-1.78.31A16.33,16.33,0,0,1,79.4,40.36a15.74,15.74,0,0,1,2.78,13.18A16.26,16.26,0,0,1,65.63,66.29,16.45,16.45,0,0,1,50,51.57v1.06q0,15,0,30A16.29,16.29,0,0,1,35.35,98.79,16.29,16.29,0,0,1,30.59,66.6C31.13,66.5,31.68,66.42,32.23,66.34ZM50,48.43A16.61,16.61,0,0,1,64.73,33.71H50.26c-.21,0-.29.09-.28.29s0,.26,0,.38v14Z"/></svg>