<svg id="Layer_1" data-name="Layer 1" xmlns="http://www.w3.org/2000/svg" viewBox="0 0 100 100"><defs><style>.cls-1{fill:#d8b000;}</style></defs><path class="cls-1" d="M79.72,1.12H16.1a15,15,0,0,0-15,15V83.9a15,15,0,0,0,15,15H83.9a15,15,0,0,0,15-15V16.1a15,15,0,0,0-15-15Zm-29.49,63c-2.9,0-5.79,0-8.69,0a1.11,1.11,0,0,1-1-.54c-2.23-3.68-4.48-7.35-6.72-11L33.45,52c-.94,1.64-1.85,3.21-2.76,4.78-1.34,2.3-2.67,4.61-4,6.91-.14.24-.23.49-.62.49-3.12,0-6.25,0-9.38,0-.08-.31.15-.47.27-.65q5.57-8.49,11.16-17a1.1,1.1,0,0,0,0-1.48c-3.29-4.91-6.54-9.85-9.8-14.79-.11-.17-.37-.34-.25-.56s.36-.09.55-.09c2.93,0,5.86,0,8.78,0a.86.86,0,0,1,.83.5C30,33,31.74,35.92,33.49,38.84c.1.17.22.32.38.56l2.35-4c1-1.77,2.06-3.53,3.08-5.3.21-.37.41-.62,1.16-.41a18.56,18.56,0,0,0,8.64-.05c.12,0,.19,0,.41,0L47,33.56q-3.84,6-7.7,11.9a.74.74,0,0,0,0,1Q45,55,50.57,63.59c.09.14.24.26.22.47S50.42,64.12,50.23,64.12Zm30.37,0q-3.13,0-6.27,0c-.46,0-.63-.12-.6-.59,0-.67,0-1.35,0-2.22C71.6,64.41,68.6,65.05,65.33,65c-7.28-.19-11.86-6.1-12.3-12.3a15,15,0,0,1,2.62-10.25,12.26,12.26,0,0,1,14.88-4.07,10.1,10.1,0,0,1,2.78,2,1.43,1.43,0,0,0,.08-.75c0-3.12,0-6.25,0-9.37,0-.71.24-.71,1.54-.55a21,21,0,0,0,5.26-.05c.84-.1,1,0,1,.58q0,16.66,0,33.35C81.17,64,81.09,64.14,80.6,64.14Z"/><path class="cls-1" d="M67.43,44.62a6.29,6.29,0,0,0-6.68,6.44,6.52,6.52,0,0,0,13,.31A6.26,6.26,0,0,0,67.43,44.62Z"/></svg>